<svg id="svg" version="1.1" width="400" height="406.9952305246423" viewBox="0 0 400 406.9952305246423" xmlns="http://www.w3.org/2000/svg" xmlns:xlink="http://www.w3.org/1999/xlink" style="display: block;"><g id="svgg"><path id="path0" d="M0.000 203.498 L 0.000 406.995 200.000 406.995 L 400.000 406.995 400.000 203.498 L 400.000 0.000 200.000 0.000 L 0.000 0.000 0.000 203.498 M142.692 154.452 L 142.607 163.911 131.081 163.994 L 119.555 164.078 119.555 193.963 L 119.555 223.847 110.175 223.847 L 100.795 223.847 100.795 193.963 L 100.795 164.078 89.110 163.994 L 77.424 163.911 77.340 154.452 L 77.256 144.992 110.016 144.992 L 142.776 144.992 142.692 154.452 M317.806 151.497 C 335.840 156.752,345.783 174.828,340.199 192.210 C 339.179 195.383,336.170 201.716,333.468 206.377 C 331.575 209.640,326.677 217.012,325.041 219.059 C 324.823 219.332,324.036 220.355,323.292 221.333 C 317.012 229.588,311.455 234.976,309.221 234.976 C 303.411 234.976,282.942 206.729,278.089 192.014 C 270.258 168.269,293.611 144.446,317.806 151.497 M302.862 153.891 C 285.394 157.865,275.359 175.215,280.975 191.732 C 283.323 198.639,291.332 212.446,296.749 218.923 C 297.040 219.271,298.017 220.485,298.922 221.622 C 303.690 227.615,308.137 232.114,309.292 232.114 C 310.480 232.114,317.221 224.749,322.472 217.713 C 329.377 208.459,334.317 199.976,337.137 192.528 C 345.214 171.195,325.330 148.780,302.862 153.891 M314.792 163.454 C 329.767 167.587,334.599 186.423,323.552 197.606 C 310.341 210.979,287.483 200.504,288.811 181.686 C 289.723 168.762,302.227 159.987,314.792 163.454 M306.359 165.646 C 296.288 167.300,289.510 177.635,292.065 187.442 C 296.094 202.911,316.771 205.639,324.578 191.733 C 331.709 179.032,320.714 163.288,306.359 165.646 M248.490 171.531 C 255.313 173.375,260.907 178.422,263.608 185.171 C 267.496 194.885,266.901 210.088,262.277 219.210 C 255.241 233.090,236.005 235.689,226.781 224.006 L 225.776 222.734 225.766 237.287 L 225.755 251.840 218.362 251.755 L 210.970 251.669 210.970 212.083 L 210.970 172.496 217.965 172.496 L 224.960 172.496 225.050 176.232 C 225.152 180.474,225.199 180.537,226.673 178.364 C 229.095 174.794,232.836 172.181,236.623 171.414 C 237.554 171.226,238.601 171.006,238.951 170.925 C 240.251 170.627,246.647 171.033,248.490 171.531 M158.562 173.927 C 159.218 175.888,159.625 177.264,162.786 188.235 C 164.993 195.892,165.906 199.030,167.042 202.862 C 167.638 204.873,168.603 208.128,169.186 210.095 C 169.768 212.063,170.335 213.672,170.445 213.672 C 170.554 213.672,171.477 210.632,172.496 206.916 C 173.515 203.200,174.530 199.515,174.752 198.728 C 174.974 197.941,175.507 196.010,175.937 194.436 C 176.367 192.862,177.681 188.140,178.858 183.943 C 180.035 179.746,181.214 175.453,181.478 174.404 C 182.183 171.610,181.839 171.708,190.384 171.859 C 198.970 172.011,198.161 171.832,197.574 173.450 C 197.320 174.149,195.774 178.585,194.139 183.307 C 192.503 188.029,189.805 195.755,188.143 200.477 C 186.481 205.199,184.901 209.706,184.631 210.493 C 184.361 211.280,183.407 213.998,182.510 216.534 C 181.614 219.070,180.188 223.148,179.342 225.596 C 172.323 245.906,170.825 248.444,164.477 250.789 C 162.201 251.629,153.328 252.210,150.596 251.698 L 149.444 251.482 149.444 245.614 L 149.444 239.746 152.792 239.746 C 159.809 239.746,163.608 235.438,161.544 229.821 C 161.205 228.896,159.689 224.563,158.176 220.191 C 156.663 215.819,154.426 209.380,153.206 205.882 C 151.985 202.385,150.198 197.234,149.234 194.436 C 148.269 191.638,146.134 185.529,144.487 180.861 C 142.841 176.193,141.494 172.300,141.494 172.209 C 141.494 171.978,146.407 171.815,152.623 171.839 L 157.870 171.860 158.562 173.927 M234.817 184.398 C 223.302 187.183,221.504 211.351,232.373 217.266 C 239.719 221.264,247.460 217.152,249.913 207.949 C 250.969 203.986,250.757 193.323,249.621 193.323 C 249.512 193.323,249.235 192.684,249.004 191.903 C 247.373 186.380,240.863 182.935,234.817 184.398 M310.591 210.413 L 310.688 211.765 309.239 211.765 L 307.790 211.765 307.790 210.546 C 307.790 208.198,310.421 208.073,310.591 210.413 M310.652 215.898 L 310.652 217.170 309.221 217.170 L 307.790 217.170 307.790 215.898 L 307.790 214.626 309.221 214.626 L 310.652 214.626 310.652 215.898 M310.652 221.267 C 310.652 222.579,310.167 222.889,308.506 222.639 C 307.903 222.548,307.790 222.334,307.790 221.282 L 307.790 220.032 309.221 220.032 L 310.652 220.032 310.652 221.267 " stroke="none" fill="#fcfcfc" fill-rule="evenodd"></path><path id="path1" d="M77.583 154.372 L 77.583 163.752 89.189 163.752 L 100.795 163.752 100.795 193.800 L 100.795 223.847 110.175 223.847 L 119.555 223.847 119.555 193.800 L 119.555 163.752 131.161 163.752 L 142.766 163.752 142.766 154.372 L 142.766 144.992 110.175 144.992 L 77.583 144.992 77.583 154.372 " stroke="none" fill="#055cf9" fill-rule="evenodd"></path><path id="path2" d="M308.352 153.172 C 308.924 153.242,309.782 153.241,310.260 153.168 C 310.738 153.096,310.270 153.038,309.221 153.040 C 308.172 153.041,307.781 153.101,308.352 153.172 M285.682 160.334 L 283.784 162.321 285.771 160.423 C 286.864 159.379,287.758 158.485,287.758 158.436 C 287.758 158.201,287.445 158.488,285.682 160.334 M287.897 161.924 L 286.963 162.957 287.997 162.023 C 288.565 161.510,289.030 161.045,289.030 160.990 C 289.030 160.744,288.768 160.960,287.897 161.924 M238.951 170.925 C 238.601 171.006,237.554 171.226,236.623 171.414 C 232.836 172.181,229.095 174.794,226.673 178.364 C 225.199 180.537,225.152 180.474,225.050 176.232 L 224.960 172.496 217.965 172.496 L 210.970 172.496 210.970 212.083 L 210.970 251.669 218.362 251.755 L 225.755 251.840 225.766 237.287 L 225.776 222.734 226.781 224.006 C 236.005 235.689,255.241 233.090,262.277 219.210 C 267.895 208.128,267.416 190.039,261.258 180.719 C 256.690 173.806,246.292 169.240,238.951 170.925 M339.024 181.240 C 339.024 181.852,339.090 182.103,339.170 181.797 C 339.250 181.490,339.250 180.990,339.170 180.684 C 339.090 180.378,339.024 180.628,339.024 181.240 M276.407 182.830 C 276.407 183.792,276.466 184.185,276.539 183.704 C 276.612 183.223,276.612 182.436,276.539 181.955 C 276.466 181.475,276.407 181.868,276.407 182.830 M329.486 182.194 C 329.486 182.806,329.551 183.056,329.631 182.750 C 329.711 182.444,329.711 181.944,329.631 181.638 C 329.551 181.331,329.486 181.582,329.486 182.194 M291.343 183.148 C 291.343 183.935,291.405 184.257,291.480 183.863 C 291.556 183.470,291.556 182.826,291.480 182.432 C 291.405 182.039,291.343 182.361,291.343 183.148 M339.037 184.420 C 339.037 185.207,339.099 185.529,339.175 185.135 C 339.251 184.742,339.251 184.098,339.175 183.704 C 339.099 183.311,339.037 183.633,339.037 184.420 M242.113 184.759 C 245.207 185.916,248.132 188.949,249.004 191.903 C 249.235 192.684,249.512 193.323,249.621 193.323 C 250.757 193.323,250.969 203.986,249.913 207.949 C 246.023 222.542,229.442 222.377,225.857 207.711 C 222.298 193.146,231.145 180.655,242.113 184.759 M308.108 209.029 C 308.108 209.098,308.668 209.208,309.353 209.273 C 310.038 209.338,310.530 209.282,310.447 209.147 C 310.296 208.903,308.108 208.792,308.108 209.029 M313.186 228.855 L 311.129 231.002 313.275 228.944 C 315.269 227.033,315.567 226.709,315.333 226.709 C 315.284 226.709,314.318 227.675,313.186 228.855 M300.795 228.386 C 300.795 228.434,301.904 229.543,303.259 230.851 L 305.723 233.227 303.347 230.763 C 301.139 228.474,300.795 228.154,300.795 228.386 M315.412 230.445 L 313.355 232.591 315.501 230.534 C 316.681 229.402,317.647 228.436,317.647 228.388 C 317.647 228.154,317.323 228.452,315.412 230.445 " stroke="none" fill="#f97e08" fill-rule="evenodd"></path><path id="path3" d="M77.417 154.372 L 77.424 163.911 89.030 163.917 L 100.636 163.923 89.114 163.833 L 77.593 163.744 77.501 154.289 L 77.410 144.833 77.417 154.372 M125.199 163.990 C 128.390 164.042,133.613 164.042,136.804 163.990 C 139.996 163.938,137.385 163.896,131.002 163.896 C 124.618 163.896,122.007 163.938,125.199 163.990 M144.436 171.931 C 142.818 171.992,141.494 172.117,141.494 172.209 C 141.494 172.300,142.841 176.193,144.487 180.861 C 146.134 185.529,148.269 191.638,149.234 194.436 C 150.198 197.234,151.985 202.385,153.206 205.882 C 154.426 209.380,156.663 215.819,158.176 220.191 C 159.689 224.563,161.205 228.896,161.544 229.821 C 163.608 235.438,159.809 239.746,152.792 239.746 L 149.444 239.746 149.444 245.614 L 149.444 251.482 150.596 251.698 C 151.230 251.817,154.127 251.840,157.035 251.749 C 168.340 251.397,171.001 248.958,176.374 234.022 C 177.160 231.836,178.496 228.045,179.342 225.596 C 180.188 223.148,181.614 219.070,182.510 216.534 C 183.407 213.998,184.361 211.280,184.631 210.493 C 184.901 209.706,186.481 205.199,188.143 200.477 C 189.805 195.755,192.503 188.029,194.139 183.307 C 195.774 178.585,197.320 174.149,197.574 173.450 C 198.161 171.832,198.970 172.011,190.384 171.859 C 181.839 171.708,182.183 171.610,181.478 174.404 C 181.214 175.453,180.035 179.746,178.858 183.943 C 177.681 188.140,176.367 192.862,175.937 194.436 C 175.507 196.010,174.974 197.941,174.752 198.728 C 174.530 199.515,173.515 203.200,172.496 206.916 C 171.477 210.632,170.554 213.672,170.445 213.672 C 170.335 213.672,169.768 212.063,169.186 210.095 C 168.603 208.128,167.638 204.873,167.042 202.862 C 165.906 199.030,164.993 195.892,162.786 188.235 C 159.625 177.264,159.218 175.888,158.562 173.927 L 157.870 171.860 152.623 171.839 C 149.738 171.828,146.053 171.869,144.436 171.931 " stroke="none" fill="#08c4f8" fill-rule="evenodd"></path><path id="path4" d="M305.882 150.581 C 305.445 150.659,304.229 150.872,303.180 151.054 C 285.900 154.051,273.324 172.362,277.263 188.791 C 280.416 201.942,299.597 230.518,307.920 234.465 C 313.997 237.346,338.367 203.149,341.316 187.602 C 344.265 172.059,333.240 155.567,317.184 151.504 C 314.132 150.732,307.894 150.222,305.882 150.581 M315.689 153.774 C 333.457 157.886,343.326 175.631,337.222 192.494 C 333.262 203.433,320.470 222.543,311.976 230.210 C 309.092 232.813,308.965 232.790,305.264 229.013 C 295.683 219.234,284.838 202.850,281.114 192.528 C 273.236 170.697,293.016 148.527,315.689 153.774 M304.610 163.273 C 290.474 166.464,284.177 183.590,292.835 195.296 C 301.943 207.611,321.253 205.607,327.633 191.684 C 334.645 176.384,321.020 159.569,304.610 163.273 M314.887 166.263 C 334.207 173.043,328.499 202.164,308.108 200.847 C 287.205 199.497,285.595 169.704,306.200 165.547 C 307.935 165.197,313.050 165.619,314.887 166.263 M307.790 210.493 L 307.790 211.801 309.121 211.703 C 310.412 211.609,310.453 211.572,310.453 210.493 C 310.453 209.414,310.412 209.377,309.121 209.282 L 307.790 209.184 307.790 210.493 M307.790 215.898 C 307.790 217.603,310.149 217.937,310.394 216.267 C 310.597 214.883,310.385 214.626,309.036 214.626 C 307.795 214.626,307.790 214.631,307.790 215.898 M307.790 221.304 L 307.790 222.612 309.141 222.514 C 310.455 222.419,310.493 222.386,310.493 221.304 C 310.493 220.222,310.455 220.188,309.141 220.093 L 307.790 219.995 307.790 221.304 " stroke="none" fill="#e71917" fill-rule="evenodd"></path></g></svg>